<svg width="15" height="15" fill="none" xmlns="http://www.w3.org/2000/svg"><g clip-path="url('#clip0_52_2809')" fill-rule="evenodd" clip-rule="evenodd" fill="#fff"><path d="M12.905 2.297a.75.75 0 0 0-1.06 0l-9.9 9.9a.75.75 0 0 0 1.06 1.06l9.9-9.9a.75.75 0 0 0 0-1.06ZM9.37-1.238a.75.75 0 0 0-1.061 0l-9.9 9.9a.75.75 0 1 0 1.06 1.06l9.9-9.9a.75.75 0 0 0 0-1.06ZM16.44 5.833a.75.75 0 0 0-1.06 0l-9.9 9.9a.75.75 0 0 0 1.061 1.06l9.9-9.9a.75.75 0 0 0 0-1.06Z"/></g><g clip-path="url('#clip1_52_2809')" fill-rule="evenodd" clip-rule="evenodd" fill="#fff"><path d="M1.945 2.297a.75.75 0 0 1 1.06 0l9.9 9.9a.75.75 0 0 1-1.06 1.06l-9.9-9.9a.75.75 0 0 1 0-1.06ZM5.48-1.238a.75.75 0 0 1 1.06 0l9.9 9.9a.75.75 0 1 1-1.06 1.06l-9.9-9.9a.75.75 0 0 1 0-1.06ZM-1.59 5.833a.75.75 0 0 1 1.06 0l9.9 9.9a.75.75 0 0 1-1.061 1.06l-9.9-9.9a.75.75 0 0 1 0-1.06Z"/></g><defs><clipPath id="clip0_52_2809"><path fill="#fff" transform="rotate(-45 13.655 5.656)" d="M0 0h16v5H0z"/></clipPath><clipPath id="clip1_52_2809"><path fill="#fff" transform="scale(-1 1) rotate(-45 6.23 23.581)" d="M0 0h16v5H0z"/></clipPath></defs></svg>