<svg width="42" height="32" viewBox="0 0 42 32" fill="none" xmlns="http://www.w3.org/2000/svg">
<path d="M9.3 0.599999C11.4333 0.599999 13.2 1.13333 14.6 2.2C16 3.2 17.0667 4.56666 17.8 6.3C18.5333 7.96666 18.9 9.83333 18.9 11.9C18.9 14.6333 18.3333 17.2667 17.2 19.8C16.1333 22.3333 14.6333 24.6 12.7 26.6C10.7667 28.6 8.56667 30.1667 6.1 31.3L0.2 26.6C2 25.8667 3.63333 24.9667 5.1 23.9C6.63333 22.8333 7.93333 21.6333 9 20.3C10.0667 18.9667 10.8333 17.6 11.3 16.2L10.8 15.9C10.4667 16.1 10.0667 16.3 9.6 16.5C9.13333 16.6333 8.46667 16.7 7.6 16.7C6.53333 16.7 5.46667 16.4333 4.4 15.9C3.33333 15.3 2.43333 14.4667 1.7 13.4C0.966667 12.2667 0.6 10.8667 0.6 9.2C0.6 7.4 1 5.86666 1.8 4.6C2.6 3.33333 3.66667 2.36666 5 1.7C6.33333 0.966665 7.76667 0.599999 9.3 0.599999ZM31.8 0.599999C33.9333 0.599999 35.7 1.13333 37.1 2.2C38.5 3.2 39.5667 4.56666 40.3 6.3C41.0333 7.96666 41.4 9.83333 41.4 11.9C41.4 14.6333 40.8333 17.2667 39.7 19.8C38.6333 22.3333 37.1333 24.6 35.2 26.6C33.2667 28.6 31.0667 30.1667 28.6 31.3L22.7 26.6C24.5 25.8667 26.1333 24.9667 27.6 23.9C29.1333 22.8333 30.4333 21.6333 31.5 20.3C32.5667 18.9667 33.3333 17.6 33.8 16.2L33.3 15.9C32.9667 16.1 32.5667 16.3 32.1 16.5C31.6333 16.6333 30.9667 16.7 30.1 16.7C29.0333 16.7 27.9667 16.4333 26.9 15.9C25.8333 15.3 24.9333 14.4667 24.2 13.4C23.4667 12.2667 23.1 10.8667 23.1 9.2C23.1 7.4 23.5 5.86666 24.3 4.6C25.1 3.33333 26.1667 2.36666 27.5 1.7C28.8333 0.966665 30.2667 0.599999 31.8 0.599999Z" fill="#FCD54C"/>
</svg>
