<svg width="30" height="30" viewBox="0 0 30 30" fill="none" xmlns="http://www.w3.org/2000/svg">
<g id="interface/magnifier-glass">
<path id="Vector" d="M4.5301 18.7491C6.26102 20.4824 8.56606 21.523 11.011 21.6747C13.4559 21.8264 15.8719 21.0789 17.8039 19.5728L24.4514 26.2203C24.6871 26.448 25.0029 26.574 25.3306 26.5712C25.6583 26.5683 25.9719 26.4368 26.2036 26.2051C26.4354 25.9733 26.5668 25.6598 26.5697 25.3321C26.5725 25.0043 26.4466 24.6886 26.2189 24.4528L19.5714 17.8053C21.1442 15.7868 21.8879 13.2442 21.6506 10.6963C21.4133 8.1483 20.213 5.78681 18.2945 4.09339C16.3759 2.39998 13.8836 1.5022 11.3259 1.58316C8.76822 1.66412 6.33771 2.71771 4.5301 4.52906C3.5961 5.46259 2.85518 6.571 2.34968 7.79096C1.84417 9.01092 1.58398 10.3185 1.58398 11.6391C1.58398 12.9596 1.84417 14.2672 2.34968 15.4872C2.85518 16.7071 3.5961 17.8155 4.5301 18.7491ZM6.2976 6.29906C7.53332 5.06337 9.15926 4.29436 10.8984 4.12306C12.6375 3.95175 14.3822 4.38875 15.8353 5.35959C17.2884 6.33043 18.3599 7.77506 18.8672 9.44733C19.3746 11.1196 19.2865 12.9161 18.6178 14.5306C17.9492 16.1452 16.7414 17.478 15.2003 18.3019C13.6591 19.1258 11.88 19.3899 10.166 19.0492C8.452 18.7085 6.90916 17.784 5.80035 16.4332C4.69154 15.0825 4.08537 13.3891 4.0851 11.6416C4.08167 10.6485 4.27548 9.6647 4.65529 8.74717C5.03509 7.82963 5.59333 6.99665 6.2976 6.29656V6.29906ZM5.7776 11.6378C5.7776 11.3063 5.9093 10.9883 6.14372 10.7539C6.37814 10.5195 6.69608 10.3878 7.0276 10.3878C7.35912 10.3878 7.67707 10.5195 7.91149 10.7539C8.14591 10.9883 8.2776 11.3063 8.2776 11.6378C8.2786 12.529 8.63304 13.3833 9.26319 14.0135C9.89333 14.6436 10.7477 14.9981 11.6389 14.9991C11.9704 14.9991 12.2883 15.1308 12.5227 15.3652C12.7572 15.5996 12.8889 15.9175 12.8889 16.2491C12.8889 16.5806 12.7572 16.8985 12.5227 17.1329C12.2883 17.3674 11.9704 17.4991 11.6389 17.4991C10.0855 17.4954 8.59675 16.8767 7.49833 15.7783C6.39992 14.6799 5.78123 13.1912 5.7776 11.6378Z" fill="#929292"/>
</g>
</svg>
