<svg width="15" height="15" viewBox="0 0 15 15" fill="none" xmlns="http://www.w3.org/2000/svg">
<g clip-path="url(#clip0_52_2809)">
<path fill-rule="evenodd" clip-rule="evenodd" d="M12.9049 2.29712C12.612 2.00422 12.1372 2.00422 11.8443 2.29712L1.94477 12.1966C1.65188 12.4895 1.65188 12.9644 1.94477 13.2573C2.23766 13.5502 2.71254 13.5502 3.00543 13.2573L12.9049 3.35778C13.1978 3.06488 13.1978 2.59001 12.9049 2.29712Z" fill="white"/>
<path fill-rule="evenodd" clip-rule="evenodd" d="M9.36939 -1.23842C9.0765 -1.53131 8.60162 -1.53131 8.30873 -1.23842L-1.59076 8.66108C-1.88366 8.95397 -1.88366 9.42884 -1.59076 9.72174C-1.29787 10.0146 -0.822997 10.0146 -0.530104 9.72174L9.36939 -0.177758C9.66228 -0.470651 9.66228 -0.945525 9.36939 -1.23842Z" fill="white"/>
<path fill-rule="evenodd" clip-rule="evenodd" d="M16.4405 5.83265C16.1476 5.53976 15.6727 5.53976 15.3798 5.83265L5.4803 15.7321C5.18741 16.025 5.18741 16.4999 5.4803 16.7928C5.7732 17.0857 6.24807 17.0857 6.54096 16.7928L16.4405 6.89331C16.7334 6.60042 16.7334 6.12554 16.4405 5.83265Z" fill="white"/>
</g>
<g clip-path="url(#clip1_52_2809)">
<path fill-rule="evenodd" clip-rule="evenodd" d="M1.94468 2.29712C2.23758 2.00422 2.71245 2.00422 3.00535 2.29712L12.9048 12.1966C13.1977 12.4895 13.1977 12.9644 12.9048 13.2573C12.6119 13.5502 12.1371 13.5502 11.8442 13.2573L1.94468 3.35778C1.65179 3.06488 1.65179 2.59001 1.94468 2.29712Z" fill="white"/>
<path fill-rule="evenodd" clip-rule="evenodd" d="M5.48022 -1.23842C5.77311 -1.53131 6.24799 -1.53131 6.54088 -1.23842L16.4404 8.66108C16.7333 8.95397 16.7333 9.42884 16.4404 9.72174C16.1475 10.0146 15.6726 10.0146 15.3797 9.72174L5.48022 -0.177758C5.18733 -0.470651 5.18733 -0.945525 5.48022 -1.23842Z" fill="white"/>
<path fill-rule="evenodd" clip-rule="evenodd" d="M-1.59085 5.83265C-1.29796 5.53976 -0.823082 5.53976 -0.530189 5.83265L9.36931 15.7321C9.6622 16.025 9.6622 16.4999 9.36931 16.7928C9.07641 17.0857 8.60154 17.0857 8.30865 16.7928L-1.59085 6.89331C-1.88374 6.60042 -1.88374 6.12554 -1.59085 5.83265Z" fill="white"/>
</g>
<defs>
<clipPath id="clip0_52_2809">
<rect width="16" height="5" fill="white" transform="translate(0 11.3125) rotate(-45)"/>
</clipPath>
<clipPath id="clip1_52_2809">
<rect width="16" height="5" fill="white" transform="matrix(-0.707107 -0.707107 -0.707107 0.707107 14.8496 11.3125)"/>
</clipPath>
</defs>
</svg>
